<mxfile host="app.diagrams.net" agent="Mozilla/5.0 (Windows NT 10.0; Win64; x64) AppleWebKit/537.36 (KHTML, like Gecko) Chrome/129.0.0.0 Safari/537.36 Edg/129.0.0.0" version="24.7.16" pages="3">
  <diagram name="Страница — 1" id="Sn9Q6BF947a1BOfdq00j">
    <mxGraphModel dx="1853" dy="564" grid="1" gridSize="10" guides="1" tooltips="1" connect="1" arrows="1" fold="1" page="1" pageScale="1" pageWidth="827" pageHeight="1169" math="0" shadow="0">
      <root>
        <mxCell id="0" />
        <mxCell id="1" parent="0" />
        <mxCell id="j0RlZ6Dkl8IsQOzs5qYV-15" value="" style="ellipse;whiteSpace=wrap;html=1;" parent="1" vertex="1">
          <mxGeometry x="-330" y="123" width="120" height="80" as="geometry" />
        </mxCell>
        <mxCell id="QufD9YajlSh37wi0qQjC-22" style="edgeStyle=none;rounded=0;orthogonalLoop=1;jettySize=auto;html=1;exitX=0.5;exitY=0.5;exitDx=0;exitDy=0;exitPerimeter=0;entryX=0;entryY=1;entryDx=0;entryDy=0;" edge="1" parent="1" source="QufD9YajlSh37wi0qQjC-24" target="QufD9YajlSh37wi0qQjC-26">
          <mxGeometry relative="1" as="geometry" />
        </mxCell>
        <mxCell id="QufD9YajlSh37wi0qQjC-23" style="edgeStyle=none;rounded=0;orthogonalLoop=1;jettySize=auto;html=1;exitX=0.5;exitY=0.5;exitDx=0;exitDy=0;exitPerimeter=0;entryX=0;entryY=0.5;entryDx=0;entryDy=0;" edge="1" parent="1" source="QufD9YajlSh37wi0qQjC-24" target="QufD9YajlSh37wi0qQjC-49">
          <mxGeometry relative="1" as="geometry" />
        </mxCell>
        <mxCell id="QufD9YajlSh37wi0qQjC-24" value="Users" style="shape=umlActor;verticalLabelPosition=bottom;verticalAlign=top;html=1;fontStyle=0;fontSize=10;" vertex="1" parent="1">
          <mxGeometry x="540" y="880" width="30" height="60" as="geometry" />
        </mxCell>
        <mxCell id="QufD9YajlSh37wi0qQjC-25" value="вход/регистрация" style="ellipse;whiteSpace=wrap;html=1;" vertex="1" parent="1">
          <mxGeometry x="640" y="1210" width="90" height="50" as="geometry" />
        </mxCell>
        <mxCell id="QufD9YajlSh37wi0qQjC-26" value="выбор вида массажа" style="ellipse;whiteSpace=wrap;html=1;" vertex="1" parent="1">
          <mxGeometry x="550" y="780" width="90" height="50" as="geometry" />
        </mxCell>
        <mxCell id="QufD9YajlSh37wi0qQjC-27" value="запись на&amp;nbsp; сеанс&amp;nbsp;" style="ellipse;whiteSpace=wrap;html=1;" vertex="1" parent="1">
          <mxGeometry x="740" y="845" width="90" height="50" as="geometry" />
        </mxCell>
        <mxCell id="QufD9YajlSh37wi0qQjC-28" style="edgeStyle=none;rounded=0;orthogonalLoop=1;jettySize=auto;html=1;exitX=0.5;exitY=0.5;exitDx=0;exitDy=0;exitPerimeter=0;entryX=1;entryY=0.5;entryDx=0;entryDy=0;" edge="1" parent="1" source="QufD9YajlSh37wi0qQjC-31" target="QufD9YajlSh37wi0qQjC-45">
          <mxGeometry relative="1" as="geometry" />
        </mxCell>
        <mxCell id="QufD9YajlSh37wi0qQjC-29" style="edgeStyle=none;rounded=0;orthogonalLoop=1;jettySize=auto;html=1;exitX=0.5;exitY=0.5;exitDx=0;exitDy=0;exitPerimeter=0;entryX=0.5;entryY=0;entryDx=0;entryDy=0;" edge="1" parent="1" source="QufD9YajlSh37wi0qQjC-31">
          <mxGeometry relative="1" as="geometry">
            <mxPoint x="935" y="1100" as="targetPoint" />
          </mxGeometry>
        </mxCell>
        <mxCell id="QufD9YajlSh37wi0qQjC-30" style="edgeStyle=none;rounded=0;orthogonalLoop=1;jettySize=auto;html=1;exitX=0.5;exitY=0.5;exitDx=0;exitDy=0;exitPerimeter=0;" edge="1" parent="1" source="QufD9YajlSh37wi0qQjC-31" target="QufD9YajlSh37wi0qQjC-48">
          <mxGeometry relative="1" as="geometry" />
        </mxCell>
        <mxCell id="QufD9YajlSh37wi0qQjC-31" value="Admin" style="shape=umlActor;verticalLabelPosition=bottom;verticalAlign=top;html=1;outlineConnect=0;" vertex="1" parent="1">
          <mxGeometry x="1042" y="775" width="30" height="60" as="geometry" />
        </mxCell>
        <mxCell id="QufD9YajlSh37wi0qQjC-32" value="Подтверждение записи на массаж" style="ellipse;whiteSpace=wrap;html=1;" vertex="1" parent="1">
          <mxGeometry x="690" y="740" width="110" height="60" as="geometry" />
        </mxCell>
        <mxCell id="QufD9YajlSh37wi0qQjC-33" value="" style="endArrow=classic;html=1;rounded=0;entryX=0.359;entryY=1.034;entryDx=0;entryDy=0;entryPerimeter=0;" edge="1" parent="1" source="QufD9YajlSh37wi0qQjC-31" target="QufD9YajlSh37wi0qQjC-32">
          <mxGeometry width="50" height="50" relative="1" as="geometry">
            <mxPoint x="810" y="1000" as="sourcePoint" />
            <mxPoint x="860" y="950" as="targetPoint" />
          </mxGeometry>
        </mxCell>
        <mxCell id="QufD9YajlSh37wi0qQjC-34" style="edgeStyle=none;rounded=0;orthogonalLoop=1;jettySize=auto;html=1;exitX=0.5;exitY=0.5;exitDx=0;exitDy=0;exitPerimeter=0;entryX=1.029;entryY=0.65;entryDx=0;entryDy=0;entryPerimeter=0;" edge="1" parent="1" source="QufD9YajlSh37wi0qQjC-31" target="QufD9YajlSh37wi0qQjC-25">
          <mxGeometry relative="1" as="geometry" />
        </mxCell>
        <mxCell id="QufD9YajlSh37wi0qQjC-35" value="управление пользователями" style="ellipse;whiteSpace=wrap;html=1;" vertex="1" parent="1">
          <mxGeometry x="1072" y="960" width="110" height="50" as="geometry" />
        </mxCell>
        <mxCell id="QufD9YajlSh37wi0qQjC-36" style="edgeStyle=none;rounded=0;orthogonalLoop=1;jettySize=auto;html=1;exitX=0.5;exitY=0.5;exitDx=0;exitDy=0;exitPerimeter=0;entryX=0.665;entryY=-0.021;entryDx=0;entryDy=0;entryPerimeter=0;" edge="1" parent="1" source="QufD9YajlSh37wi0qQjC-31" target="QufD9YajlSh37wi0qQjC-35">
          <mxGeometry relative="1" as="geometry" />
        </mxCell>
        <mxCell id="QufD9YajlSh37wi0qQjC-37" value="удаление пользователя" style="ellipse;whiteSpace=wrap;html=1;" vertex="1" parent="1">
          <mxGeometry x="1140" y="1080" width="110" height="50" as="geometry" />
        </mxCell>
        <mxCell id="QufD9YajlSh37wi0qQjC-38" style="edgeStyle=none;rounded=0;orthogonalLoop=1;jettySize=auto;html=1;exitX=0.5;exitY=0;exitDx=0;exitDy=0;entryX=0.571;entryY=1.063;entryDx=0;entryDy=0;entryPerimeter=0;" edge="1" parent="1" source="QufD9YajlSh37wi0qQjC-37" target="QufD9YajlSh37wi0qQjC-35">
          <mxGeometry relative="1" as="geometry" />
        </mxCell>
        <mxCell id="QufD9YajlSh37wi0qQjC-39" value="связь с поддержкой" style="ellipse;whiteSpace=wrap;html=1;" vertex="1" parent="1">
          <mxGeometry x="660" y="1120" width="90" height="50" as="geometry" />
        </mxCell>
        <mxCell id="QufD9YajlSh37wi0qQjC-40" style="edgeStyle=none;rounded=0;orthogonalLoop=1;jettySize=auto;html=1;exitX=0.5;exitY=0.5;exitDx=0;exitDy=0;exitPerimeter=0;entryX=0.049;entryY=0.197;entryDx=0;entryDy=0;entryPerimeter=0;" edge="1" parent="1" source="QufD9YajlSh37wi0qQjC-24" target="QufD9YajlSh37wi0qQjC-39">
          <mxGeometry relative="1" as="geometry" />
        </mxCell>
        <mxCell id="QufD9YajlSh37wi0qQjC-41" style="edgeStyle=none;rounded=0;orthogonalLoop=1;jettySize=auto;html=1;exitX=0.5;exitY=0.5;exitDx=0;exitDy=0;exitPerimeter=0;entryX=0.249;entryY=0.009;entryDx=0;entryDy=0;entryPerimeter=0;" edge="1" parent="1" source="QufD9YajlSh37wi0qQjC-24" target="QufD9YajlSh37wi0qQjC-25">
          <mxGeometry relative="1" as="geometry" />
        </mxCell>
        <mxCell id="QufD9YajlSh37wi0qQjC-42" style="edgeStyle=none;rounded=0;orthogonalLoop=1;jettySize=auto;html=1;exitX=0.5;exitY=0.5;exitDx=0;exitDy=0;exitPerimeter=0;entryX=1;entryY=0.6;entryDx=0;entryDy=0;entryPerimeter=0;" edge="1" parent="1" source="QufD9YajlSh37wi0qQjC-31" target="QufD9YajlSh37wi0qQjC-39">
          <mxGeometry relative="1" as="geometry" />
        </mxCell>
        <mxCell id="QufD9YajlSh37wi0qQjC-43" style="edgeStyle=none;rounded=0;orthogonalLoop=1;jettySize=auto;html=1;exitX=0.5;exitY=0;exitDx=0;exitDy=0;entryX=0;entryY=1;entryDx=0;entryDy=0;" edge="1" parent="1" source="QufD9YajlSh37wi0qQjC-44" target="QufD9YajlSh37wi0qQjC-35">
          <mxGeometry relative="1" as="geometry" />
        </mxCell>
        <mxCell id="QufD9YajlSh37wi0qQjC-44" value="добавления пользователя" style="ellipse;whiteSpace=wrap;html=1;" vertex="1" parent="1">
          <mxGeometry x="1002" y="1110" width="110" height="50" as="geometry" />
        </mxCell>
        <mxCell id="QufD9YajlSh37wi0qQjC-45" value="управление записями&amp;nbsp;" style="ellipse;whiteSpace=wrap;html=1;" vertex="1" parent="1">
          <mxGeometry x="700" y="1030" width="90" height="50" as="geometry" />
        </mxCell>
        <mxCell id="QufD9YajlSh37wi0qQjC-46" style="edgeStyle=none;rounded=0;orthogonalLoop=1;jettySize=auto;html=1;exitX=0.5;exitY=0.5;exitDx=0;exitDy=0;exitPerimeter=0;entryX=0;entryY=0.3;entryDx=0;entryDy=0;entryPerimeter=0;" edge="1" parent="1" source="QufD9YajlSh37wi0qQjC-24" target="QufD9YajlSh37wi0qQjC-45">
          <mxGeometry relative="1" as="geometry" />
        </mxCell>
        <mxCell id="QufD9YajlSh37wi0qQjC-48" value="управление расписанием&amp;nbsp;" style="ellipse;whiteSpace=wrap;html=1;" vertex="1" parent="1">
          <mxGeometry x="1150" y="845" width="110" height="50" as="geometry" />
        </mxCell>
        <mxCell id="QufD9YajlSh37wi0qQjC-49" value="просмотр описания массажа&amp;nbsp;" style="ellipse;whiteSpace=wrap;html=1;" vertex="1" parent="1">
          <mxGeometry x="680" y="910" width="90" height="50" as="geometry" />
        </mxCell>
        <mxCell id="QufD9YajlSh37wi0qQjC-50" style="edgeStyle=none;rounded=0;orthogonalLoop=1;jettySize=auto;html=1;entryX=1.025;entryY=0.646;entryDx=0;entryDy=0;entryPerimeter=0;exitX=0.5;exitY=0.5;exitDx=0;exitDy=0;exitPerimeter=0;" edge="1" parent="1" source="QufD9YajlSh37wi0qQjC-31" target="QufD9YajlSh37wi0qQjC-49">
          <mxGeometry relative="1" as="geometry">
            <mxPoint x="1065" y="870" as="sourcePoint" />
          </mxGeometry>
        </mxCell>
        <mxCell id="QufD9YajlSh37wi0qQjC-51" style="edgeStyle=none;rounded=0;orthogonalLoop=1;jettySize=auto;html=1;exitX=0.5;exitY=0.5;exitDx=0;exitDy=0;exitPerimeter=0;entryX=0.016;entryY=0.7;entryDx=0;entryDy=0;entryPerimeter=0;" edge="1" parent="1" source="QufD9YajlSh37wi0qQjC-24" target="QufD9YajlSh37wi0qQjC-32">
          <mxGeometry relative="1" as="geometry" />
        </mxCell>
        <mxCell id="QufD9YajlSh37wi0qQjC-52" value="определение роли" style="ellipse;whiteSpace=wrap;html=1;" vertex="1" parent="1">
          <mxGeometry x="1140" y="740" width="110" height="50" as="geometry" />
        </mxCell>
        <mxCell id="QufD9YajlSh37wi0qQjC-53" style="edgeStyle=none;rounded=0;orthogonalLoop=1;jettySize=auto;html=1;exitX=0.5;exitY=0.5;exitDx=0;exitDy=0;exitPerimeter=0;entryX=0.35;entryY=0.957;entryDx=0;entryDy=0;entryPerimeter=0;" edge="1" parent="1" source="QufD9YajlSh37wi0qQjC-31" target="QufD9YajlSh37wi0qQjC-52">
          <mxGeometry relative="1" as="geometry" />
        </mxCell>
        <mxCell id="QufD9YajlSh37wi0qQjC-54" value="добавление описания массажа&amp;nbsp;" style="ellipse;whiteSpace=wrap;html=1;" vertex="1" parent="1">
          <mxGeometry x="900" y="745" width="90" height="50" as="geometry" />
        </mxCell>
        <mxCell id="QufD9YajlSh37wi0qQjC-55" style="edgeStyle=orthogonalEdgeStyle;rounded=0;orthogonalLoop=1;jettySize=auto;html=1;exitX=0.5;exitY=0.5;exitDx=0;exitDy=0;exitPerimeter=0;entryX=1;entryY=0.5;entryDx=0;entryDy=0;" edge="1" parent="1" source="QufD9YajlSh37wi0qQjC-57" target="QufD9YajlSh37wi0qQjC-48">
          <mxGeometry relative="1" as="geometry" />
        </mxCell>
        <mxCell id="QufD9YajlSh37wi0qQjC-56" style="edgeStyle=orthogonalEdgeStyle;rounded=0;orthogonalLoop=1;jettySize=auto;html=1;exitX=0.5;exitY=0.5;exitDx=0;exitDy=0;exitPerimeter=0;" edge="1" parent="1" source="QufD9YajlSh37wi0qQjC-57">
          <mxGeometry relative="1" as="geometry">
            <mxPoint x="950" y="1160" as="targetPoint" />
            <Array as="points">
              <mxPoint x="1085" y="1200" />
              <mxPoint x="950" y="1200" />
            </Array>
          </mxGeometry>
        </mxCell>
        <mxCell id="QufD9YajlSh37wi0qQjC-57" value="Teacher" style="shape=umlActor;verticalLabelPosition=bottom;verticalAlign=top;html=1;outlineConnect=0;" vertex="1" parent="1">
          <mxGeometry x="1070" y="1230" width="30" height="60" as="geometry" />
        </mxCell>
        <mxCell id="QufD9YajlSh37wi0qQjC-58" value="редактирование записси" style="ellipse;whiteSpace=wrap;html=1;" vertex="1" parent="1">
          <mxGeometry x="800" y="1210" width="110" height="50" as="geometry" />
        </mxCell>
        <mxCell id="QufD9YajlSh37wi0qQjC-59" style="edgeStyle=orthogonalEdgeStyle;rounded=0;orthogonalLoop=1;jettySize=auto;html=1;exitX=0.5;exitY=0.5;exitDx=0;exitDy=0;exitPerimeter=0;entryX=0.412;entryY=1;entryDx=0;entryDy=0;entryPerimeter=0;" edge="1" parent="1" source="QufD9YajlSh37wi0qQjC-57" target="QufD9YajlSh37wi0qQjC-58">
          <mxGeometry relative="1" as="geometry" />
        </mxCell>
        <mxCell id="QufD9YajlSh37wi0qQjC-60" style="edgeStyle=none;rounded=0;orthogonalLoop=1;jettySize=auto;html=1;entryX=0;entryY=1;entryDx=0;entryDy=0;" edge="1" parent="1" source="QufD9YajlSh37wi0qQjC-27">
          <mxGeometry relative="1" as="geometry">
            <mxPoint x="630" y="897" as="sourcePoint" />
            <mxPoint x="638" y="810" as="targetPoint" />
          </mxGeometry>
        </mxCell>
        <mxCell id="QufD9YajlSh37wi0qQjC-61" value="Include" style="rounded=0;whiteSpace=wrap;html=1;" vertex="1" parent="1">
          <mxGeometry x="600" y="820" width="46" height="10" as="geometry" />
        </mxCell>
        <mxCell id="QufD9YajlSh37wi0qQjC-62" value="Include" style="rounded=0;whiteSpace=wrap;html=1;" vertex="1" parent="1">
          <mxGeometry x="1080" y="1000" width="46" height="10" as="geometry" />
        </mxCell>
        <mxCell id="QufD9YajlSh37wi0qQjC-63" value="Include" style="rounded=0;whiteSpace=wrap;html=1;" vertex="1" parent="1">
          <mxGeometry x="810" y="1210" width="46" height="10" as="geometry" />
        </mxCell>
        <mxCell id="QufD9YajlSh37wi0qQjC-64" value="" style="endArrow=classic;html=1;rounded=0;entryX=0.555;entryY=0;entryDx=0;entryDy=0;entryPerimeter=0;exitX=0.346;exitY=1.018;exitDx=0;exitDy=0;exitPerimeter=0;" edge="1" parent="1" source="QufD9YajlSh37wi0qQjC-54" target="QufD9YajlSh37wi0qQjC-58">
          <mxGeometry width="50" height="50" relative="1" as="geometry">
            <mxPoint x="954.5" y="1109" as="sourcePoint" />
            <mxPoint x="793.5" y="960" as="targetPoint" />
          </mxGeometry>
        </mxCell>
        <mxCell id="QufD9YajlSh37wi0qQjC-65" style="edgeStyle=orthogonalEdgeStyle;rounded=0;orthogonalLoop=1;jettySize=auto;html=1;exitX=0.5;exitY=0;exitDx=0;exitDy=0;exitPerimeter=0;entryX=0.97;entryY=0.713;entryDx=0;entryDy=0;entryPerimeter=0;" edge="1" parent="1" source="QufD9YajlSh37wi0qQjC-31" target="QufD9YajlSh37wi0qQjC-54">
          <mxGeometry relative="1" as="geometry" />
        </mxCell>
        <mxCell id="QufD9YajlSh37wi0qQjC-66" value="управление записями" style="ellipse;whiteSpace=wrap;html=1;" vertex="1" parent="1">
          <mxGeometry x="895" y="1090" width="100" height="70" as="geometry" />
        </mxCell>
      </root>
    </mxGraphModel>
  </diagram>
  <diagram id="aHasKVYYZ6ZJzOoGVuJB" name="Страница — 2">
    <mxGraphModel dx="727" dy="399" grid="1" gridSize="10" guides="1" tooltips="1" connect="1" arrows="1" fold="1" page="1" pageScale="1" pageWidth="827" pageHeight="1169" math="0" shadow="0">
      <root>
        <mxCell id="0" />
        <mxCell id="1" parent="0" />
        <mxCell id="Vlpkj7MBaVBn8xbvUsrT-1" style="edgeStyle=orthogonalEdgeStyle;rounded=0;orthogonalLoop=1;jettySize=auto;html=1;exitX=0.5;exitY=1;exitDx=0;exitDy=0;entryX=0.5;entryY=0;entryDx=0;entryDy=0;" edge="1" parent="1" source="Vlpkj7MBaVBn8xbvUsrT-2" target="Vlpkj7MBaVBn8xbvUsrT-3">
          <mxGeometry relative="1" as="geometry" />
        </mxCell>
        <mxCell id="Vlpkj7MBaVBn8xbvUsrT-2" value="" style="ellipse;whiteSpace=wrap;html=1;aspect=fixed;" vertex="1" parent="1">
          <mxGeometry x="720" y="200" width="20" height="20" as="geometry" />
        </mxCell>
        <mxCell id="Vlpkj7MBaVBn8xbvUsrT-3" value="" style="rhombus;whiteSpace=wrap;html=1;" vertex="1" parent="1">
          <mxGeometry x="700" y="250" width="60" height="50" as="geometry" />
        </mxCell>
        <mxCell id="Vlpkj7MBaVBn8xbvUsrT-4" value="" style="edgeStyle=orthogonalEdgeStyle;rounded=0;orthogonalLoop=1;jettySize=auto;html=1;" edge="1" parent="1" source="Vlpkj7MBaVBn8xbvUsrT-5" target="Vlpkj7MBaVBn8xbvUsrT-33">
          <mxGeometry relative="1" as="geometry" />
        </mxCell>
        <mxCell id="Vlpkj7MBaVBn8xbvUsrT-5" value="Ввод почты и пароля" style="strokeWidth=2;html=1;shape=mxgraph.flowchart.terminator;whiteSpace=wrap;" vertex="1" parent="1">
          <mxGeometry x="690" y="320" width="80" height="60" as="geometry" />
        </mxCell>
        <mxCell id="Vlpkj7MBaVBn8xbvUsrT-6" style="edgeStyle=orthogonalEdgeStyle;rounded=0;orthogonalLoop=1;jettySize=auto;html=1;exitX=0.5;exitY=1;exitDx=0;exitDy=0;entryX=0.5;entryY=0;entryDx=0;entryDy=0;entryPerimeter=0;" edge="1" parent="1" source="Vlpkj7MBaVBn8xbvUsrT-3" target="Vlpkj7MBaVBn8xbvUsrT-5">
          <mxGeometry relative="1" as="geometry" />
        </mxCell>
        <mxCell id="Vlpkj7MBaVBn8xbvUsrT-7" style="edgeStyle=orthogonalEdgeStyle;rounded=0;orthogonalLoop=1;jettySize=auto;html=1;exitX=0.5;exitY=1;exitDx=0;exitDy=0;exitPerimeter=0;entryX=0.5;entryY=0;entryDx=0;entryDy=0;" edge="1" parent="1" source="Vlpkj7MBaVBn8xbvUsrT-8" target="Vlpkj7MBaVBn8xbvUsrT-12">
          <mxGeometry relative="1" as="geometry" />
        </mxCell>
        <mxCell id="Vlpkj7MBaVBn8xbvUsrT-8" value="Проверка почты и пароля" style="strokeWidth=2;html=1;shape=mxgraph.flowchart.terminator;whiteSpace=wrap;" vertex="1" parent="1">
          <mxGeometry x="690" y="400" width="80" height="60" as="geometry" />
        </mxCell>
        <mxCell id="Vlpkj7MBaVBn8xbvUsrT-9" style="edgeStyle=orthogonalEdgeStyle;rounded=0;orthogonalLoop=1;jettySize=auto;html=1;exitX=0.5;exitY=1;exitDx=0;exitDy=0;exitPerimeter=0;entryX=0.5;entryY=0;entryDx=0;entryDy=0;entryPerimeter=0;" edge="1" parent="1" source="Vlpkj7MBaVBn8xbvUsrT-5" target="Vlpkj7MBaVBn8xbvUsrT-8">
          <mxGeometry relative="1" as="geometry" />
        </mxCell>
        <mxCell id="Vlpkj7MBaVBn8xbvUsrT-10" style="edgeStyle=orthogonalEdgeStyle;rounded=0;orthogonalLoop=1;jettySize=auto;html=1;exitX=0;exitY=0.5;exitDx=0;exitDy=0;entryX=0;entryY=0.5;entryDx=0;entryDy=0;" edge="1" parent="1" source="Vlpkj7MBaVBn8xbvUsrT-12" target="Vlpkj7MBaVBn8xbvUsrT-3">
          <mxGeometry relative="1" as="geometry" />
        </mxCell>
        <mxCell id="Vlpkj7MBaVBn8xbvUsrT-11" style="edgeStyle=orthogonalEdgeStyle;rounded=0;orthogonalLoop=1;jettySize=auto;html=1;exitX=0.5;exitY=1;exitDx=0;exitDy=0;" edge="1" parent="1" source="Vlpkj7MBaVBn8xbvUsrT-12">
          <mxGeometry relative="1" as="geometry">
            <mxPoint x="730.3333333333335" y="580" as="targetPoint" />
          </mxGeometry>
        </mxCell>
        <mxCell id="Vlpkj7MBaVBn8xbvUsrT-12" value="" style="rhombus;whiteSpace=wrap;html=1;" vertex="1" parent="1">
          <mxGeometry x="700" y="490" width="60" height="50" as="geometry" />
        </mxCell>
        <mxCell id="Vlpkj7MBaVBn8xbvUsrT-13" value="Введены неправильные данные" style="text;html=1;align=center;verticalAlign=middle;resizable=0;points=[];autosize=1;strokeColor=none;fillColor=none;" vertex="1" parent="1">
          <mxGeometry x="480" y="430" width="200" height="30" as="geometry" />
        </mxCell>
        <mxCell id="Vlpkj7MBaVBn8xbvUsrT-14" value="Введены правильные данные&amp;nbsp;" style="text;html=1;align=center;verticalAlign=middle;resizable=0;points=[];autosize=1;strokeColor=none;fillColor=none;" vertex="1" parent="1">
          <mxGeometry x="530" y="540" width="190" height="30" as="geometry" />
        </mxCell>
        <mxCell id="Vlpkj7MBaVBn8xbvUsrT-15" style="edgeStyle=orthogonalEdgeStyle;rounded=0;orthogonalLoop=1;jettySize=auto;html=1;exitX=0.5;exitY=1;exitDx=0;exitDy=0;exitPerimeter=0;entryX=0.5;entryY=0;entryDx=0;entryDy=0;" edge="1" parent="1" source="Vlpkj7MBaVBn8xbvUsrT-17" target="Vlpkj7MBaVBn8xbvUsrT-21">
          <mxGeometry relative="1" as="geometry" />
        </mxCell>
        <mxCell id="Vlpkj7MBaVBn8xbvUsrT-16" value="" style="edgeStyle=orthogonalEdgeStyle;rounded=0;orthogonalLoop=1;jettySize=auto;html=1;" edge="1" parent="1" source="Vlpkj7MBaVBn8xbvUsrT-17" target="Vlpkj7MBaVBn8xbvUsrT-34">
          <mxGeometry relative="1" as="geometry" />
        </mxCell>
        <mxCell id="Vlpkj7MBaVBn8xbvUsrT-17" value="Выбрать массажа для записи&amp;nbsp;" style="strokeWidth=2;html=1;shape=mxgraph.flowchart.terminator;whiteSpace=wrap;" vertex="1" parent="1">
          <mxGeometry x="690" y="580" width="80" height="60" as="geometry" />
        </mxCell>
        <mxCell id="Vlpkj7MBaVBn8xbvUsrT-18" style="edgeStyle=orthogonalEdgeStyle;rounded=0;orthogonalLoop=1;jettySize=auto;html=1;exitX=0;exitY=0.5;exitDx=0;exitDy=0;" edge="1" parent="1" source="Vlpkj7MBaVBn8xbvUsrT-21" target="Vlpkj7MBaVBn8xbvUsrT-23">
          <mxGeometry relative="1" as="geometry" />
        </mxCell>
        <mxCell id="Vlpkj7MBaVBn8xbvUsrT-19" style="edgeStyle=orthogonalEdgeStyle;rounded=0;orthogonalLoop=1;jettySize=auto;html=1;exitX=0;exitY=1;exitDx=0;exitDy=0;" edge="1" parent="1" source="Vlpkj7MBaVBn8xbvUsrT-21" target="Vlpkj7MBaVBn8xbvUsrT-25">
          <mxGeometry relative="1" as="geometry" />
        </mxCell>
        <mxCell id="Vlpkj7MBaVBn8xbvUsrT-20" style="edgeStyle=orthogonalEdgeStyle;rounded=0;orthogonalLoop=1;jettySize=auto;html=1;exitX=1;exitY=0.5;exitDx=0;exitDy=0;" edge="1" parent="1" source="Vlpkj7MBaVBn8xbvUsrT-21" target="Vlpkj7MBaVBn8xbvUsrT-29">
          <mxGeometry relative="1" as="geometry" />
        </mxCell>
        <mxCell id="Vlpkj7MBaVBn8xbvUsrT-21" value="" style="rhombus;whiteSpace=wrap;html=1;" vertex="1" parent="1">
          <mxGeometry x="700" y="680" width="60" height="50" as="geometry" />
        </mxCell>
        <mxCell id="Vlpkj7MBaVBn8xbvUsrT-22" style="edgeStyle=orthogonalEdgeStyle;rounded=0;orthogonalLoop=1;jettySize=auto;html=1;exitX=0.5;exitY=1;exitDx=0;exitDy=0;exitPerimeter=0;entryX=0;entryY=0.5;entryDx=0;entryDy=0;" edge="1" parent="1" source="Vlpkj7MBaVBn8xbvUsrT-23" target="Vlpkj7MBaVBn8xbvUsrT-30">
          <mxGeometry relative="1" as="geometry" />
        </mxCell>
        <mxCell id="Vlpkj7MBaVBn8xbvUsrT-23" value="Записаться на массаж" style="strokeWidth=2;html=1;shape=mxgraph.flowchart.terminator;whiteSpace=wrap;" vertex="1" parent="1">
          <mxGeometry x="550" y="790" width="80" height="60" as="geometry" />
        </mxCell>
        <mxCell id="Vlpkj7MBaVBn8xbvUsrT-24" style="edgeStyle=orthogonalEdgeStyle;rounded=0;orthogonalLoop=1;jettySize=auto;html=1;exitX=0.5;exitY=1;exitDx=0;exitDy=0;exitPerimeter=0;" edge="1" parent="1" source="Vlpkj7MBaVBn8xbvUsrT-25" target="Vlpkj7MBaVBn8xbvUsrT-30">
          <mxGeometry relative="1" as="geometry" />
        </mxCell>
        <mxCell id="Vlpkj7MBaVBn8xbvUsrT-25" value="Изменить запись" style="strokeWidth=2;html=1;shape=mxgraph.flowchart.terminator;whiteSpace=wrap;" vertex="1" parent="1">
          <mxGeometry x="670" y="790" width="80" height="60" as="geometry" />
        </mxCell>
        <mxCell id="Vlpkj7MBaVBn8xbvUsrT-26" value="Просмотреть запись" style="strokeWidth=2;html=1;shape=mxgraph.flowchart.terminator;whiteSpace=wrap;" vertex="1" parent="1">
          <mxGeometry x="800" y="790" width="80" height="60" as="geometry" />
        </mxCell>
        <mxCell id="Vlpkj7MBaVBn8xbvUsrT-27" style="edgeStyle=orthogonalEdgeStyle;rounded=0;orthogonalLoop=1;jettySize=auto;html=1;exitX=1;exitY=1;exitDx=0;exitDy=0;entryX=0.433;entryY=-0.003;entryDx=0;entryDy=0;entryPerimeter=0;" edge="1" parent="1" source="Vlpkj7MBaVBn8xbvUsrT-21" target="Vlpkj7MBaVBn8xbvUsrT-26">
          <mxGeometry relative="1" as="geometry" />
        </mxCell>
        <mxCell id="Vlpkj7MBaVBn8xbvUsrT-28" style="edgeStyle=orthogonalEdgeStyle;rounded=0;orthogonalLoop=1;jettySize=auto;html=1;exitX=0.5;exitY=1;exitDx=0;exitDy=0;exitPerimeter=0;entryX=1;entryY=0.5;entryDx=0;entryDy=0;" edge="1" parent="1" source="Vlpkj7MBaVBn8xbvUsrT-29" target="Vlpkj7MBaVBn8xbvUsrT-30">
          <mxGeometry relative="1" as="geometry" />
        </mxCell>
        <mxCell id="Vlpkj7MBaVBn8xbvUsrT-29" value="Удалить запись" style="strokeWidth=2;html=1;shape=mxgraph.flowchart.terminator;whiteSpace=wrap;" vertex="1" parent="1">
          <mxGeometry x="920" y="790" width="80" height="60" as="geometry" />
        </mxCell>
        <mxCell id="Vlpkj7MBaVBn8xbvUsrT-30" value="" style="rhombus;whiteSpace=wrap;html=1;" vertex="1" parent="1">
          <mxGeometry x="730" y="900" width="60" height="50" as="geometry" />
        </mxCell>
        <mxCell id="Vlpkj7MBaVBn8xbvUsrT-31" style="edgeStyle=orthogonalEdgeStyle;rounded=0;orthogonalLoop=1;jettySize=auto;html=1;exitX=0.5;exitY=1;exitDx=0;exitDy=0;exitPerimeter=0;entryX=0.944;entryY=0.343;entryDx=0;entryDy=0;entryPerimeter=0;" edge="1" parent="1" source="Vlpkj7MBaVBn8xbvUsrT-26" target="Vlpkj7MBaVBn8xbvUsrT-30">
          <mxGeometry relative="1" as="geometry" />
        </mxCell>
        <mxCell id="Vlpkj7MBaVBn8xbvUsrT-32" style="edgeStyle=orthogonalEdgeStyle;rounded=0;orthogonalLoop=1;jettySize=auto;html=1;exitX=0.5;exitY=1;exitDx=0;exitDy=0;entryX=0;entryY=0.5;entryDx=0;entryDy=0;entryPerimeter=0;" edge="1" parent="1" source="Vlpkj7MBaVBn8xbvUsrT-30" target="Vlpkj7MBaVBn8xbvUsrT-17">
          <mxGeometry relative="1" as="geometry">
            <Array as="points">
              <mxPoint x="760" y="970" />
              <mxPoint x="500" y="970" />
              <mxPoint x="500" y="610" />
            </Array>
          </mxGeometry>
        </mxCell>
        <mxCell id="Vlpkj7MBaVBn8xbvUsrT-33" value="" style="ellipse;whiteSpace=wrap;html=1;aspect=fixed;" vertex="1" parent="1">
          <mxGeometry x="814" y="340" width="20" height="20" as="geometry" />
        </mxCell>
        <mxCell id="Vlpkj7MBaVBn8xbvUsrT-34" value="" style="ellipse;whiteSpace=wrap;html=1;aspect=fixed;" vertex="1" parent="1">
          <mxGeometry x="860" y="600" width="20" height="20" as="geometry" />
        </mxCell>
        <mxCell id="Vlpkj7MBaVBn8xbvUsrT-35" value="Выход из системы" style="text;html=1;align=center;verticalAlign=middle;resizable=0;points=[];autosize=1;strokeColor=none;fillColor=none;" vertex="1" parent="1">
          <mxGeometry x="890" y="590" width="130" height="30" as="geometry" />
        </mxCell>
        <mxCell id="Vlpkj7MBaVBn8xbvUsrT-36" value="&lt;span style=&quot;color: rgb(0, 0, 0); font-family: Helvetica; font-size: 12px; font-style: normal; font-variant-ligatures: normal; font-variant-caps: normal; font-weight: 400; letter-spacing: normal; orphans: 2; text-align: center; text-indent: 0px; text-transform: none; widows: 2; word-spacing: 0px; -webkit-text-stroke-width: 0px; white-space: nowrap; background-color: rgb(251, 251, 251); text-decoration-thickness: initial; text-decoration-style: initial; text-decoration-color: initial; display: inline !important; float: none;&quot;&gt;Выход из системы&lt;/span&gt;" style="text;whiteSpace=wrap;html=1;" vertex="1" parent="1">
          <mxGeometry x="834" y="340" width="140" height="40" as="geometry" />
        </mxCell>
        <mxCell id="Vlpkj7MBaVBn8xbvUsrT-37" value="" style="endArrow=none;html=1;rounded=0;exitX=1;exitY=0;exitDx=0;exitDy=0;" edge="1" parent="1" source="Vlpkj7MBaVBn8xbvUsrT-21">
          <mxGeometry width="50" height="50" relative="1" as="geometry">
            <mxPoint x="820" y="800" as="sourcePoint" />
            <mxPoint x="1060" y="800" as="targetPoint" />
            <Array as="points">
              <mxPoint x="1060" y="690" />
            </Array>
          </mxGeometry>
        </mxCell>
        <mxCell id="Vlpkj7MBaVBn8xbvUsrT-39" value="подтверждение номера&amp;nbsp;" style="strokeWidth=2;html=1;shape=mxgraph.flowchart.terminator;whiteSpace=wrap;" vertex="1" parent="1">
          <mxGeometry x="1020" y="790" width="100" height="60" as="geometry" />
        </mxCell>
        <mxCell id="Vlpkj7MBaVBn8xbvUsrT-40" value="" style="endArrow=classic;html=1;rounded=0;" edge="1" parent="1">
          <mxGeometry width="50" height="50" relative="1" as="geometry">
            <mxPoint x="1060" y="690" as="sourcePoint" />
            <mxPoint x="1060" y="790" as="targetPoint" />
            <Array as="points">
              <mxPoint x="1060" y="690" />
            </Array>
          </mxGeometry>
        </mxCell>
      </root>
    </mxGraphModel>
  </diagram>
  <diagram id="smsij98Wmw1ewSfDMP_E" name="Страница — 3">
    <mxGraphModel dx="872" dy="479" grid="1" gridSize="10" guides="1" tooltips="1" connect="1" arrows="1" fold="1" page="1" pageScale="1" pageWidth="827" pageHeight="1169" math="0" shadow="0">
      <root>
        <mxCell id="0" />
        <mxCell id="1" parent="0" />
        <mxCell id="skW-gDbjZoDmXVQ_z4p6-1" value="Пользователь" style="rounded=1;whiteSpace=wrap;html=1;" vertex="1" parent="1">
          <mxGeometry x="490" y="240" width="90" height="40" as="geometry" />
        </mxCell>
        <mxCell id="skW-gDbjZoDmXVQ_z4p6-2" value="" style="verticalLabelPosition=bottom;verticalAlign=top;html=1;shape=mxgraph.basic.rect;fillColor2=none;strokeWidth=1;size=20;indent=5;" vertex="1" parent="1">
          <mxGeometry x="530" y="280" width="10" height="370" as="geometry" />
        </mxCell>
        <mxCell id="skW-gDbjZoDmXVQ_z4p6-3" value="" style="endArrow=classic;html=1;rounded=0;" edge="1" parent="1">
          <mxGeometry width="50" height="50" relative="1" as="geometry">
            <mxPoint x="540" y="340" as="sourcePoint" />
            <mxPoint x="680" y="340" as="targetPoint" />
          </mxGeometry>
        </mxCell>
        <mxCell id="skW-gDbjZoDmXVQ_z4p6-4" value="Ввод данных" style="text;html=1;align=center;verticalAlign=middle;resizable=0;points=[];autosize=1;strokeColor=none;fillColor=none;" vertex="1" parent="1">
          <mxGeometry x="560" y="300" width="100" height="30" as="geometry" />
        </mxCell>
        <mxCell id="skW-gDbjZoDmXVQ_z4p6-5" value="Форма регисрации" style="rounded=1;whiteSpace=wrap;html=1;" vertex="1" parent="1">
          <mxGeometry x="640" y="240" width="90" height="40" as="geometry" />
        </mxCell>
        <mxCell id="skW-gDbjZoDmXVQ_z4p6-6" value="" style="endArrow=none;dashed=1;html=1;rounded=0;" edge="1" parent="1">
          <mxGeometry width="50" height="50" relative="1" as="geometry">
            <mxPoint x="684.58" y="310" as="sourcePoint" />
            <mxPoint x="684.58" y="280" as="targetPoint" />
          </mxGeometry>
        </mxCell>
        <mxCell id="skW-gDbjZoDmXVQ_z4p6-7" value="" style="verticalLabelPosition=bottom;verticalAlign=top;html=1;shape=mxgraph.basic.rect;fillColor2=none;strokeWidth=1;size=20;indent=5;" vertex="1" parent="1">
          <mxGeometry x="680" y="310" width="10" height="340" as="geometry" />
        </mxCell>
        <mxCell id="skW-gDbjZoDmXVQ_z4p6-8" value="" style="endArrow=classic;html=1;rounded=0;entryX=0;entryY=0.046;entryDx=0;entryDy=0;entryPerimeter=0;" edge="1" parent="1" target="skW-gDbjZoDmXVQ_z4p6-12">
          <mxGeometry width="50" height="50" relative="1" as="geometry">
            <mxPoint x="690" y="371" as="sourcePoint" />
            <mxPoint x="829" y="370" as="targetPoint" />
          </mxGeometry>
        </mxCell>
        <mxCell id="skW-gDbjZoDmXVQ_z4p6-9" value="передача даннхы" style="text;html=1;align=center;verticalAlign=middle;resizable=0;points=[];autosize=1;strokeColor=none;fillColor=none;" vertex="1" parent="1">
          <mxGeometry x="700" y="330" width="120" height="30" as="geometry" />
        </mxCell>
        <mxCell id="skW-gDbjZoDmXVQ_z4p6-10" value="Обработка сохранение&amp;nbsp;" style="rounded=1;whiteSpace=wrap;html=1;" vertex="1" parent="1">
          <mxGeometry x="794" y="240" width="90" height="40" as="geometry" />
        </mxCell>
        <mxCell id="skW-gDbjZoDmXVQ_z4p6-11" value="" style="endArrow=none;dashed=1;html=1;rounded=0;" edge="1" parent="1">
          <mxGeometry width="50" height="50" relative="1" as="geometry">
            <mxPoint x="839" y="360" as="sourcePoint" />
            <mxPoint x="838.58" y="280" as="targetPoint" />
          </mxGeometry>
        </mxCell>
        <mxCell id="skW-gDbjZoDmXVQ_z4p6-12" value="" style="verticalLabelPosition=bottom;verticalAlign=top;html=1;shape=mxgraph.basic.rect;fillColor2=none;strokeWidth=1;size=20;indent=5;" vertex="1" parent="1">
          <mxGeometry x="834" y="360" width="10" height="280" as="geometry" />
        </mxCell>
        <mxCell id="skW-gDbjZoDmXVQ_z4p6-13" value="" style="endArrow=none;html=1;rounded=0;" edge="1" parent="1">
          <mxGeometry width="50" height="50" relative="1" as="geometry">
            <mxPoint x="880" y="420" as="sourcePoint" />
            <mxPoint x="880" y="400" as="targetPoint" />
          </mxGeometry>
        </mxCell>
        <mxCell id="skW-gDbjZoDmXVQ_z4p6-14" value="" style="endArrow=none;html=1;rounded=0;entryX=1.2;entryY=0.139;entryDx=0;entryDy=0;entryPerimeter=0;" edge="1" parent="1" target="skW-gDbjZoDmXVQ_z4p6-12">
          <mxGeometry width="50" height="50" relative="1" as="geometry">
            <mxPoint x="880" y="399" as="sourcePoint" />
            <mxPoint x="860" y="390" as="targetPoint" />
          </mxGeometry>
        </mxCell>
        <mxCell id="skW-gDbjZoDmXVQ_z4p6-15" value="" style="endArrow=classic;html=1;rounded=0;" edge="1" parent="1">
          <mxGeometry width="50" height="50" relative="1" as="geometry">
            <mxPoint x="880" y="420" as="sourcePoint" />
            <mxPoint x="850" y="420" as="targetPoint" />
          </mxGeometry>
        </mxCell>
        <mxCell id="skW-gDbjZoDmXVQ_z4p6-16" value="Валидация" style="text;html=1;align=center;verticalAlign=middle;resizable=0;points=[];autosize=1;strokeColor=none;fillColor=none;" vertex="1" parent="1">
          <mxGeometry x="844" y="370" width="90" height="30" as="geometry" />
        </mxCell>
        <mxCell id="skW-gDbjZoDmXVQ_z4p6-17" value="БД" style="rounded=1;whiteSpace=wrap;html=1;" vertex="1" parent="1">
          <mxGeometry x="940" y="240" width="90" height="40" as="geometry" />
        </mxCell>
        <mxCell id="skW-gDbjZoDmXVQ_z4p6-18" value="" style="endArrow=none;dashed=1;html=1;rounded=0;" edge="1" parent="1">
          <mxGeometry width="50" height="50" relative="1" as="geometry">
            <mxPoint x="985" y="450" as="sourcePoint" />
            <mxPoint x="984.58" y="280" as="targetPoint" />
          </mxGeometry>
        </mxCell>
        <mxCell id="skW-gDbjZoDmXVQ_z4p6-19" value="" style="endArrow=classic;html=1;rounded=0;entryX=0;entryY=0.046;entryDx=0;entryDy=0;entryPerimeter=0;" edge="1" parent="1">
          <mxGeometry width="50" height="50" relative="1" as="geometry">
            <mxPoint x="844" y="450" as="sourcePoint" />
            <mxPoint x="988" y="452" as="targetPoint" />
          </mxGeometry>
        </mxCell>
        <mxCell id="skW-gDbjZoDmXVQ_z4p6-20" value="" style="verticalLabelPosition=bottom;verticalAlign=top;html=1;shape=mxgraph.basic.rect;fillColor2=none;strokeWidth=1;size=20;indent=5;" vertex="1" parent="1">
          <mxGeometry x="980" y="455" width="10" height="50" as="geometry" />
        </mxCell>
        <mxCell id="skW-gDbjZoDmXVQ_z4p6-21" value="Запрос на добавления на массаж" style="text;html=1;align=center;verticalAlign=middle;resizable=0;points=[];autosize=1;strokeColor=none;fillColor=none;" vertex="1" parent="1">
          <mxGeometry x="844" y="420" width="210" height="30" as="geometry" />
        </mxCell>
        <mxCell id="skW-gDbjZoDmXVQ_z4p6-22" value="" style="endArrow=classic;html=1;rounded=0;entryX=1.019;entryY=0.489;entryDx=0;entryDy=0;entryPerimeter=0;exitX=-0.161;exitY=0.87;exitDx=0;exitDy=0;exitPerimeter=0;" edge="1" parent="1" source="skW-gDbjZoDmXVQ_z4p6-20" target="skW-gDbjZoDmXVQ_z4p6-12">
          <mxGeometry width="50" height="50" relative="1" as="geometry">
            <mxPoint x="836" y="550" as="sourcePoint" />
            <mxPoint x="980" y="552" as="targetPoint" />
          </mxGeometry>
        </mxCell>
        <mxCell id="skW-gDbjZoDmXVQ_z4p6-23" value="Результат" style="text;html=1;align=center;verticalAlign=middle;resizable=0;points=[];autosize=1;strokeColor=none;fillColor=none;" vertex="1" parent="1">
          <mxGeometry x="870" y="465" width="80" height="30" as="geometry" />
        </mxCell>
        <mxCell id="skW-gDbjZoDmXVQ_z4p6-24" value="Активность регистрации" style="rounded=1;whiteSpace=wrap;html=1;" vertex="1" parent="1">
          <mxGeometry x="1100" y="240" width="90" height="40" as="geometry" />
        </mxCell>
        <mxCell id="skW-gDbjZoDmXVQ_z4p6-25" value="" style="endArrow=none;dashed=1;html=1;rounded=0;" edge="1" parent="1">
          <mxGeometry width="50" height="50" relative="1" as="geometry">
            <mxPoint x="1150" y="610" as="sourcePoint" />
            <mxPoint x="1150" y="280" as="targetPoint" />
          </mxGeometry>
        </mxCell>
        <mxCell id="skW-gDbjZoDmXVQ_z4p6-26" value="" style="verticalLabelPosition=bottom;verticalAlign=top;html=1;shape=mxgraph.basic.rect;fillColor2=none;strokeWidth=1;size=20;indent=5;" vertex="1" parent="1">
          <mxGeometry x="1150" y="610" width="10" height="50" as="geometry" />
        </mxCell>
        <mxCell id="skW-gDbjZoDmXVQ_z4p6-27" value="" style="endArrow=none;dashed=1;html=1;rounded=0;entryX=0.336;entryY=1.042;entryDx=0;entryDy=0;entryPerimeter=0;" edge="1" parent="1" target="skW-gDbjZoDmXVQ_z4p6-20">
          <mxGeometry width="50" height="50" relative="1" as="geometry">
            <mxPoint x="985" y="640" as="sourcePoint" />
            <mxPoint x="984.5500000000001" y="530" as="targetPoint" />
          </mxGeometry>
        </mxCell>
        <mxCell id="skW-gDbjZoDmXVQ_z4p6-28" value="" style="endArrow=classic;html=1;rounded=0;entryX=-0.155;entryY=0.065;entryDx=0;entryDy=0;entryPerimeter=0;exitX=1.045;exitY=0.897;exitDx=0;exitDy=0;exitPerimeter=0;" edge="1" parent="1" source="skW-gDbjZoDmXVQ_z4p6-12" target="skW-gDbjZoDmXVQ_z4p6-26">
          <mxGeometry width="50" height="50" relative="1" as="geometry">
            <mxPoint x="844" y="630" as="sourcePoint" />
            <mxPoint x="894" y="580" as="targetPoint" />
          </mxGeometry>
        </mxCell>
        <mxCell id="skW-gDbjZoDmXVQ_z4p6-29" value="Сообщение пользователю" style="text;html=1;align=center;verticalAlign=middle;resizable=0;points=[];autosize=1;strokeColor=none;fillColor=none;" vertex="1" parent="1">
          <mxGeometry x="880" y="580" width="170" height="30" as="geometry" />
        </mxCell>
      </root>
    </mxGraphModel>
  </diagram>
</mxfile>
